<svg xmlns="http://www.w3.org/2000/svg" viewBox="0 0 1200 1100" font-family="Inter, sans-serif">
<defs>
<filter id="glow" x="-20%" y="-20%" width="140%" height="140%"><feGaussianBlur stdDeviation="3" result="blur"/><feMerge><feMergeNode in="blur"/><feMergeNode in="SourceGraphic"/></feMerge></filter>
<marker id="m-green" markerWidth="8" markerHeight="6" refX="7" refY="3" orient="auto"><path d="M0,0 L8,3 L0,6 Z" fill="#00ff88"/></marker>
<marker id="m-accent" markerWidth="8" markerHeight="6" refX="7" refY="3" orient="auto"><path d="M0,0 L8,3 L0,6 Z" fill="#00f0ff"/></marker>
<marker id="m-orange" markerWidth="8" markerHeight="6" refX="7" refY="3" orient="auto"><path d="M0,0 L8,3 L0,6 Z" fill="#ff8c00"/></marker>
<marker id="m-red" markerWidth="8" markerHeight="6" refX="7" refY="3" orient="auto"><path d="M0,0 L8,3 L0,6 Z" fill="#ff4466"/></marker>
<marker id="m-purple" markerWidth="8" markerHeight="6" refX="7" refY="3" orient="auto"><path d="M0,0 L8,3 L0,6 Z" fill="#a855f7"/></marker>
<marker id="m-gray" markerWidth="8" markerHeight="6" refX="7" refY="3" orient="auto"><path d="M0,0 L8,3 L0,6 Z" fill="#7a7a85"/></marker>
</defs>
<rect width="1200" height="1100" fill="#0a0a0f"/>
<text x="600" y="42" text-anchor="middle" font-size="22" font-weight="700" fill="#e8e8ec">动态多级 Agent 编排架构全景</text>
<text x="600" y="66" text-anchor="middle" font-size="13" fill="#7a7a85">元数据驱动 - 动态能力目录 - LLM选择+代码校验 - 串行/并行调度 - 结果汇总容错</text>
<rect x="80" y="82" width="12" height="12" rx="2" fill="#00ff88"/>
<text x="98" y="93" font-size="11" fill="#7a7a85">阶段1 动态能力目录</text>
<rect x="192" y="82" width="12" height="12" rx="2" fill="#00f0ff"/>
<text x="210" y="93" font-size="11" fill="#7a7a85">阶段2 任务规划</text>
<rect x="290" y="82" width="12" height="12" rx="2" fill="#ff8c00"/>
<text x="308" y="93" font-size="11" fill="#7a7a85">阶段3 子Agent选择</text>
<rect x="416" y="82" width="12" height="12" rx="2" fill="#a855f7"/>
<text x="434" y="93" font-size="11" fill="#7a7a85">阶段4 调度执行</text>
<rect x="514" y="82" width="12" height="12" rx="2" fill="#ff4466"/>
<text x="532" y="93" font-size="11" fill="#7a7a85">阶段5 结果汇总</text>
<text x="30" y="110" font-size="14" font-weight="600" fill="#e8e8ec">五大阶段流水线</text>
<rect x="30" y="140" width="210" height="150" rx="8" fill="rgba(0,255,136,0.05)" stroke="#00ff88" stroke-width="1.5" opacity="0.9"/>
<rect x="30" y="140" width="210" height="4" rx="2" fill="#00ff88"/>
<circle cx="52" cy="168" r="13" fill="#00ff88" opacity="0.2"/>
<text x="52" y="172" text-anchor="middle" font-size="13" font-weight="700" fill="#00ff88" font-family="JetBrains Mono, monospace">1</text>
<text x="72" y="172" font-size="13" font-weight="600" fill="#e8e8ec">动态能力目录</text>
<text x="44" y="200" font-size="11" fill="#7a7a85">从DB查询启用子Agent</text>
<text x="44" y="220" font-size="11" fill="#7a7a85">组装能力目录注入Prompt</text>
<text x="44" y="240" font-size="11" fill="#7a7a85">每次请求动态生成</text>
<text x="135" y="282" text-anchor="middle" font-size="9" fill="#00ff88" font-family="JetBrains Mono, monospace" opacity="0.6">STAGE 1</text>
<line x1="242" y1="215" x2="260" y2="215" stroke="#00ff88" stroke-width="2" marker-end="url(#m-green)"/>
<rect x="262" y="140" width="210" height="150" rx="8" fill="rgba(0,240,255,0.05)" stroke="#00f0ff" stroke-width="1.5" opacity="0.9"/>
<rect x="262" y="140" width="210" height="4" rx="2" fill="#00f0ff"/>
<circle cx="284" cy="168" r="13" fill="#00f0ff" opacity="0.2"/>
<text x="284" y="172" text-anchor="middle" font-size="13" font-weight="700" fill="#00f0ff" font-family="JetBrains Mono, monospace">2</text>
<text x="304" y="172" font-size="13" font-weight="600" fill="#e8e8ec">主Agent任务规划</text>
<text x="276" y="200" font-size="11" fill="#7a7a85">隐式: LLM直接调工具</text>
<text x="276" y="220" font-size="11" fill="#7a7a85">显式: 先输出JSON清单</text>
<text x="276" y="240" font-size="11" fill="#7a7a85">Middleware可拦截</text>
<text x="367" y="282" text-anchor="middle" font-size="9" fill="#00f0ff" font-family="JetBrains Mono, monospace" opacity="0.6">STAGE 2</text>
<line x1="474" y1="215" x2="492" y2="215" stroke="#00f0ff" stroke-width="2" marker-end="url(#m-accent)"/>
<rect x="494" y="140" width="210" height="150" rx="8" fill="rgba(255,140,0,0.05)" stroke="#ff8c00" stroke-width="1.5" opacity="0.9"/>
<rect x="494" y="140" width="210" height="4" rx="2" fill="#ff8c00"/>
<circle cx="516" cy="168" r="13" fill="#ff8c00" opacity="0.2"/>
<text x="516" y="172" text-anchor="middle" font-size="13" font-weight="700" fill="#ff8c00" font-family="JetBrains Mono, monospace">3</text>
<text x="536" y="172" font-size="13" font-weight="600" fill="#e8e8ec">子Agent选择</text>
<text x="508" y="200" font-size="11" fill="#7a7a85">&lt;10个: LLM自主选择</text>
<text x="508" y="220" font-size="11" fill="#7a7a85">&gt;10个: 向量RAG检索</text>
<text x="508" y="240" font-size="11" fill="#7a7a85">代码侧校验合法性</text>
<text x="599" y="282" text-anchor="middle" font-size="9" fill="#ff8c00" font-family="JetBrains Mono, monospace" opacity="0.6">STAGE 3</text>
<line x1="706" y1="215" x2="724" y2="215" stroke="#ff8c00" stroke-width="2" marker-end="url(#m-orange)"/>
<rect x="726" y="140" width="210" height="150" rx="8" fill="rgba(168,85,247,0.05)" stroke="#a855f7" stroke-width="1.5" opacity="0.9"/>
<rect x="726" y="140" width="210" height="4" rx="2" fill="#a855f7"/>
<circle cx="748" cy="168" r="13" fill="#a855f7" opacity="0.2"/>
<text x="748" y="172" text-anchor="middle" font-size="13" font-weight="700" fill="#a855f7" font-family="JetBrains Mono, monospace">4</text>
<text x="768" y="172" font-size="13" font-weight="600" fill="#e8e8ec">调度执行</text>
<text x="740" y="200" font-size="11" fill="#7a7a85">串行: 有数据依赖</text>
<text x="740" y="220" font-size="11" fill="#7a7a85">并行: 无依赖batch_call</text>
<text x="740" y="240" font-size="11" fill="#7a7a85">调用栈深度保护</text>
<text x="831" y="282" text-anchor="middle" font-size="9" fill="#a855f7" font-family="JetBrains Mono, monospace" opacity="0.6">STAGE 4</text>
<line x1="938" y1="215" x2="956" y2="215" stroke="#a855f7" stroke-width="2" marker-end="url(#m-purple)"/>
<rect x="958" y="140" width="210" height="150" rx="8" fill="rgba(255,68,102,0.05)" stroke="#ff4466" stroke-width="1.5" opacity="0.9"/>
<rect x="958" y="140" width="210" height="4" rx="2" fill="#ff4466"/>
<circle cx="980" cy="168" r="13" fill="#ff4466" opacity="0.2"/>
<text x="980" y="172" text-anchor="middle" font-size="13" font-weight="700" fill="#ff4466" font-family="JetBrains Mono, monospace">5</text>
<text x="1000" y="172" font-size="13" font-weight="600" fill="#e8e8ec">结果汇总容错</text>
<text x="972" y="200" font-size="11" fill="#7a7a85">主Agent整合去重</text>
<text x="972" y="220" font-size="11" fill="#7a7a85">失败换Agent重试</text>
<text x="972" y="240" font-size="11" fill="#7a7a85">超时降级处理</text>
<text x="1063" y="282" text-anchor="middle" font-size="9" fill="#ff4466" font-family="JetBrains Mono, monospace" opacity="0.6">STAGE 5</text>
<text x="30" y="300" font-size="14" font-weight="600" fill="#e8e8ec">运行时架构：从用户请求到最终回答</text>
<text x="30" y="316" font-size="11" fill="#7a7a85">组件颜色对应所属阶段，便于追踪数据流向</text>
<rect x="80" y="336" width="140" height="36" rx="6" fill="#12121a" stroke="#7a7a85" stroke-width="1.5"/>
<text x="150" y="359" text-anchor="middle" font-size="12" fill="#e8e8ec">用户请求</text>
<line x1="150" y1="372" x2="150" y2="390" stroke="#7a7a85" stroke-width="1.5" marker-end="url(#m-gray)"/>
<rect x="60" y="394" width="180" height="44" rx="6" fill="rgba(0,255,136,0.06)" stroke="#00ff88" stroke-width="1.5"/>
<text x="150" y="412" text-anchor="middle" font-size="11" font-weight="600" fill="#00ff88" font-family="JetBrains Mono, monospace">t_agent_meta</text>
<text x="150" y="428" text-anchor="middle" font-size="10" fill="#7a7a85">子Agent元数据 (DB)</text>
<line x1="150" y1="438" x2="150" y2="454" stroke="#00ff88" stroke-width="1.5" marker-end="url(#m-green)"/>
<rect x="60" y="458" width="180" height="44" rx="6" fill="rgba(0,255,136,0.08)" stroke="#00ff88" stroke-width="1.5" filter="url(#glow)"/>
<text x="150" y="476" text-anchor="middle" font-size="11" font-weight="600" fill="#00ff88">CatalogBuilder</text>
<text x="150" y="492" text-anchor="middle" font-size="10" fill="#7a7a85">动态构建能力目录</text>
<rect x="60" y="506" width="60" height="16" rx="3" fill="#00ff88" opacity="0.15"/>
<text x="90" y="518" text-anchor="middle" font-size="9" font-weight="600" fill="#00ff88" font-family="JetBrains Mono, monospace">STAGE 1</text>
<rect x="340" y="346" width="520" height="110" rx="10" fill="rgba(0,240,255,0.06)" stroke="#00f0ff" stroke-width="2" filter="url(#glow)"/>
<rect x="340" y="346" width="520" height="28" rx="10" fill="#00f0ff" opacity="0.12"/>
<rect x="340" y="366" width="520" height="8" fill="#00f0ff" opacity="0.12"/>
<text x="356" y="366" font-size="13" font-weight="700" fill="#00f0ff" font-family="JetBrains Mono, monospace">Main Agent (Orchestrator)</text>
<rect x="780" y="352" width="64" height="16" rx="3" fill="#00f0ff" opacity="0.2"/>
<text x="812" y="364" text-anchor="middle" font-size="9" font-weight="600" fill="#00f0ff" font-family="JetBrains Mono, monospace">STAGE 2</text>
<text x="356" y="394" font-size="11" fill="#e8e8ec">sys_prompt + 动态能力目录 (内存拼接, 不持久化)</text>
<text x="356" y="414" font-size="11" fill="#7a7a85">LLM 分析需求 -&gt; 选择子Agent -&gt; 调用 sub_agent_call</text>
<text x="356" y="434" font-size="11" fill="#7a7a85">收集结果 -&gt; 整合去重 -&gt; 输出最终回答</text>
<text x="356" y="450" font-size="10" fill="#a855f7" font-family="JetBrains Mono, monospace">HarnessAgent 全局单例引擎</text>
<line x1="220" y1="354" x2="340" y2="354" stroke="#00f0ff" stroke-width="1.5" marker-end="url(#m-accent)"/>
<path d="M 240,480 L 290,480 L 290,422 L 340,422" stroke="#00ff88" stroke-width="1.5" fill="none" stroke-dasharray="5,3" marker-end="url(#m-green)"/>
<text x="252" y="472" font-size="10" fill="#00ff88">注入Prompt</text>
<rect x="500" y="472" width="200" height="34" rx="6" fill="rgba(255,140,0,0.08)" stroke="#ff8c00" stroke-width="1.5"/>
<text x="600" y="494" text-anchor="middle" font-size="11" fill="#ff8c00" font-family="JetBrains Mono, monospace">sub_agent_call 工具</text>
<line x1="600" y1="456" x2="600" y2="472" stroke="#ff8c00" stroke-width="1.5" marker-end="url(#m-orange)"/>
<rect x="500" y="518" width="200" height="52" rx="6" fill="rgba(255,140,0,0.05)" stroke="#ff8c00" stroke-width="1" stroke-dasharray="4,2"/>
<text x="600" y="534" text-anchor="middle" font-size="10" font-weight="600" fill="#ff8c00">代码侧校验 (STAGE 3)</text>
<text x="600" y="548" text-anchor="middle" font-size="9" fill="#7a7a85">agentId合法性 + 权限</text>
<text x="600" y="562" text-anchor="middle" font-size="9" fill="#7a7a85">启用状态 + 调用栈深度</text>
<line x1="600" y1="506" x2="600" y2="518" stroke="#ff8c00" stroke-width="1.5"/>
<rect x="140" y="590" width="200" height="68" rx="8" fill="rgba(168,85,247,0.06)" stroke="#a855f7" stroke-width="1.5"/>
<rect x="140" y="590" width="200" height="4" rx="2" fill="#a855f7"/>
<text x="150" y="614" font-size="11" font-weight="600" fill="#a855f7" font-family="JetBrains Mono, monospace">agent_data_query</text>
<text x="150" y="632" font-size="11" fill="#e8e8ec">数据查询Agent</text>
<text x="150" y="648" font-size="10" fill="#7a7a85">SQL / 业务数据</text>
<path d="M 600,570 L 600,574 L 240,574 L 240,590" stroke="#a855f7" stroke-width="1" fill="none" opacity="0.5" stroke-dasharray="3,2"/>
<rect x="370" y="590" width="200" height="68" rx="8" fill="rgba(168,85,247,0.06)" stroke="#a855f7" stroke-width="1.5"/>
<rect x="370" y="590" width="200" height="4" rx="2" fill="#a855f7"/>
<text x="380" y="614" font-size="11" font-weight="600" fill="#a855f7" font-family="JetBrains Mono, monospace">agent_report_gen</text>
<text x="380" y="632" font-size="11" fill="#e8e8ec">报表生成Agent</text>
<text x="380" y="648" font-size="10" fill="#7a7a85">分析报表 / 可视化</text>
<path d="M 600,570 L 600,574 L 470,574 L 470,590" stroke="#a855f7" stroke-width="1" fill="none" opacity="0.5" stroke-dasharray="3,2"/>
<rect x="600" y="590" width="200" height="68" rx="8" fill="rgba(168,85,247,0.06)" stroke="#a855f7" stroke-width="1.5"/>
<rect x="600" y="590" width="200" height="4" rx="2" fill="#a855f7"/>
<text x="610" y="614" font-size="11" font-weight="600" fill="#a855f7" font-family="JetBrains Mono, monospace">agent_code_review</text>
<text x="610" y="632" font-size="11" fill="#e8e8ec">代码审查Agent</text>
<text x="610" y="648" font-size="10" fill="#7a7a85">安全 / 性能 / 规范</text>
<path d="M 600,570 L 600,574 L 700,574 L 700,590" stroke="#a855f7" stroke-width="1" fill="none" opacity="0.5" stroke-dasharray="3,2"/>
<rect x="140" y="662" width="70" height="16" rx="3" fill="#a855f7" opacity="0.15"/>
<text x="175" y="674" text-anchor="middle" font-size="9" font-weight="600" fill="#a855f7" font-family="JetBrains Mono, monospace">STAGE 4</text>
<text x="230" y="674" font-size="10" fill="#a855f7" font-family="JetBrains Mono, monospace">串行: A -&gt; B (有依赖)  |  并行: batch_call / Mono.zip (无依赖)</text>
<rect x="970" y="376" width="130" height="46" rx="6" fill="rgba(255,68,102,0.06)" stroke="#ff4466" stroke-width="1.5"/>
<text x="1035" y="394" text-anchor="middle" font-size="11" fill="#ff4466">结果汇总</text>
<text x="1035" y="410" text-anchor="middle" font-size="10" fill="#7a7a85">整合 / 去重</text>
<rect x="1000" y="414" width="70" height="14" rx="3" fill="#ff4466" opacity="0.15"/>
<text x="1035" y="425" text-anchor="middle" font-size="8" font-weight="600" fill="#ff4466" font-family="JetBrains Mono, monospace">STAGE 5</text>
<path d="M 340,624 L 960,624 L 960,399 L 970,399" stroke="#ff4466" stroke-width="1" fill="none" opacity="0.4" stroke-dasharray="4,2"/>
<path d="M 570,624 L 960,624 L 960,399 L 970,399" stroke="#ff4466" stroke-width="1" fill="none" opacity="0.4" stroke-dasharray="4,2"/>
<path d="M 800,624 L 960,624 L 960,399 L 970,399" stroke="#ff4466" stroke-width="1" fill="none" opacity="0.4" stroke-dasharray="4,2"/>
<path d="M 970,399 L 860,410" stroke="#ff4466" stroke-width="1.5" fill="none" stroke-dasharray="5,3" marker-end="url(#m-red)"/>
<rect x="970" y="450" width="130" height="36" rx="6" fill="#12121a" stroke="#00f0ff" stroke-width="1.5"/>
<text x="1035" y="473" text-anchor="middle" font-size="12" fill="#00f0ff">最终回答</text>
<line x1="1035" y1="428" x2="1035" y2="450" stroke="#ff4466" stroke-width="1.5" marker-end="url(#m-red)"/>
<rect x="30" y="770" width="1140" height="310" rx="10" fill="#12121a" stroke="#2a2a35" stroke-width="1"/>
<rect x="50" y="792" width="8" height="16" rx="2" fill="#ff8c00"/>
<text x="66" y="806" font-size="14" font-weight="600" fill="#ff8c00">子Agent选择策略 (STAGE 3)</text>
<rect x="50" y="824" width="500" height="86" rx="6" fill="rgba(0,255,136,0.05)" stroke="#00ff88" stroke-width="1.5"/>
<rect x="50" y="824" width="4" height="86" rx="2" fill="#00ff88"/>
<text x="68" y="846" font-size="12" font-weight="600" fill="#00ff88">LLM自主选择</text>
<text x="210" y="846" font-size="10" fill="#7a7a85" font-family="JetBrains Mono, monospace">(子Agent &lt; 10个)</text>
<text x="68" y="866" font-size="10" fill="#7a7a85">全量能力目录注入Prompt</text>
<text x="68" y="882" font-size="10" fill="#7a7a85">LLM根据description匹配</text>
<text x="68" y="898" font-size="10" fill="#7a7a85">实现最简单</text>
<rect x="50" y="924" width="500" height="86" rx="6" fill="rgba(0,240,255,0.05)" stroke="#00f0ff" stroke-width="1.5"/>
<rect x="50" y="924" width="4" height="86" rx="2" fill="#00f0ff"/>
<text x="68" y="946" font-size="12" font-weight="600" fill="#00f0ff">向量RAG检索</text>
<text x="210" y="946" font-size="10" fill="#7a7a85" font-family="JetBrains Mono, monospace">(子Agent &gt; 10个)</text>
<text x="68" y="966" font-size="10" fill="#7a7a85">query向量检索召回Top-N</text>
<text x="68" y="982" font-size="10" fill="#7a7a85">只把候选子集注入Prompt</text>
<text x="68" y="998" font-size="10" fill="#7a7a85">防止token爆炸</text>
<rect x="620" y="792" width="8" height="16" rx="2" fill="#ff4466"/>
<text x="636" y="806" font-size="14" font-weight="600" fill="#ff4466">安全防护三道防线</text>
<rect x="620" y="824" width="530" height="74" rx="6" fill="rgba(255,68,102,0.05)" stroke="#ff4466" stroke-width="1.5"/>
<rect x="620" y="824" width="4" height="74" rx="2" fill="#ff4466"/>
<text x="638" y="846" font-size="12" font-weight="600" fill="#ff4466">调用栈深度保护</text>
<text x="638" y="864" font-size="9" fill="#7a7a85">RuntimeContext维护call_depth</text>
<text x="638" y="878" font-size="9" fill="#7a7a85">超过MAX_DEPTH(3)拒绝调用</text>
<text x="638" y="892" font-size="9" fill="#7a7a85">防止A-&gt;B-&gt;A无限递归</text>
<rect x="620" y="910" width="530" height="74" rx="6" fill="rgba(255,140,0,0.05)" stroke="#ff8c00" stroke-width="1.5"/>
<rect x="620" y="910" width="4" height="74" rx="2" fill="#ff8c00"/>
<text x="638" y="932" font-size="12" font-weight="600" fill="#ff8c00">权限隔离</text>
<text x="638" y="950" font-size="9" fill="#7a7a85">callable_sub_agent_ids白名单</text>
<text x="638" y="964" font-size="9" fill="#7a7a85">主Agent只能调配置的子Agent</text>
<text x="638" y="978" font-size="9" fill="#7a7a85">不在列表中直接拒绝</text>
<rect x="620" y="996" width="530" height="74" rx="6" fill="rgba(168,85,247,0.05)" stroke="#a855f7" stroke-width="1.5"/>
<rect x="620" y="996" width="4" height="74" rx="2" fill="#a855f7"/>
<text x="638" y="1018" font-size="12" font-weight="600" fill="#a855f7">并发数限制</text>
<text x="638" y="1036" font-size="9" fill="#7a7a85">MAX_PARALLEL=5</text>
<text x="638" y="1050" font-size="9" fill="#7a7a85">Semaphore控制并行信号量</text>
<text x="638" y="1064" font-size="9" fill="#7a7a85">超限返回错误提示</text>
</svg>